<svg xmlns="http://www.w3.org/2000/svg"  viewBox="0 0 48 48" width="50px" height="50px"><path fill="#00acc1" d="M44,24c0,11.044-8.956,20-20,20S4,35.044,4,24S12.956,4,24,4S44,12.956,44,24z"/><path fill="#eee" d="M40,24c0,8.838-7.162,16-16,16S8,32.838,8,24S15.163,8,24,8S40,15.163,40,24z"/><path fill="#263238" d="M22.484,21.414c-1.438,0.84-1.91,2.68-1.059,4.113c0.855,1.438,2.707,1.918,4.148,1.082c1.438-0.836,1.91-2.68,1.055-4.113C25.777,21.063,23.922,20.574,22.484,21.414"/><path fill="#263238" d="M35.301,17.445l-9.375,7.793l-2.059-3.461L35.301,17.445z"/><path fill="#ff1744" d="M8.051 25.02h3.952V23H8.05C8.03 23.332 8 23.662 8 24 8 24.344 8.03 24.681 8.051 25.02zM10.4 32.398l3.491-1.859-.949-1.781L9.446 30.62C9.726 31.235 10.046 31.827 10.4 32.398z"/><path fill="#90a4ae" d="M17.176 14.082l1.754-1-1.958-3.439c-.607.298-1.197.623-1.758.993L17.176 14.082zM9.674 16.906l3.427 1.98 1.008-1.75-3.436-1.985C10.301 15.711 9.975 16.301 9.674 16.906zM35.996 25h3.953C39.97 24.668 40 24.338 40 24c0-.344-.03-.681-.051-1.02h-3.952V25zM38.67 30.379l-3.529-1.813-.922 1.797 3.52 1.808C38.082 31.594 38.4 31 38.67 30.379zM31.211 9.731l-2.008 3.414 1.742 1.023 2.013-3.427C32.402 10.365 31.814 10.036 31.211 9.731zM25 8.05C24.668 8.03 24.338 8 24 8c-.344 0-.681.03-1.02.051v3.952H25V8.05z"/><path fill="#4dd0e1" d="M23.512,23.145c-0.477,0.277-0.633,0.895-0.352,1.371c0.285,0.48,0.906,0.641,1.383,0.359c0.48-0.277,0.637-0.891,0.355-1.371C24.613,23.027,23.992,22.867,23.512,23.145"/></svg>